<?xml version="1.0" encoding="UTF-8" standalone="no"?>
<svg
   xmlns:dc="http://purl.org/dc/elements/1.1/"
   xmlns:cc="http://creativecommons.org/ns#"
   xmlns:rdf="http://www.w3.org/1999/02/22-rdf-syntax-ns#"
   xmlns:svg="http://www.w3.org/2000/svg"
   xmlns="http://www.w3.org/2000/svg"
   xmlns:sodipodi="http://sodipodi.sourceforge.net/DTD/sodipodi-0.dtd"
   xmlns:inkscape="http://www.inkscape.org/namespaces/inkscape"
   width="80mm"
   height="80mm"
   viewBox="0 0 80 80"
   version="1.1"
   id="svg8"
   sodipodi:docname="logo_rab.svg.2020_12_21_11_06_14.0.svg"
   inkscape:version="1.0.1 (3bc2e813f5, 2020-09-07)"
   inkscape:export-filename="/home/kevcaz/Documents/logo_rab_r.png"
   inkscape:export-xdpi="899.78003"
   inkscape:export-ydpi="899.78003">
  <defs
     id="defs2">
    <filter
       inkscape:collect="always"
       style="color-interpolation-filters:sRGB"
       id="filter1048"
       x="-1.1646369e-05"
       width="1.0000232"
       y="-2.1446584e-05"
       height="1.0000429">
      <feGaussianBlur
         inkscape:collect="always"
         stdDeviation="0.00017872154"
         id="feGaussianBlur1050" />
    </filter>
  </defs>
  <sodipodi:namedview
     id="base"
     pagecolor="#ffffff"
     bordercolor="#666666"
     borderopacity="1.0"
     inkscape:pageopacity="0.0"
     inkscape:pageshadow="2"
     inkscape:zoom="0.38134079"
     inkscape:cx="-27.283102"
     inkscape:cy="211.78382"
     inkscape:document-units="mm"
     inkscape:current-layer="g1088"
     inkscape:document-rotation="0"
     showgrid="false"
     showguides="true"
     inkscape:guide-bbox="true"
     inkscape:window-width="1829"
     inkscape:window-height="1016"
     inkscape:window-x="50"
     inkscape:window-y="27"
     inkscape:window-maximized="0">
    <sodipodi:guide
       position="-62.248509,122.02545"
       orientation="0,-1"
       id="guide992" />
    <sodipodi:guide
       position="-321.68399,171.33949"
       orientation="0,-1"
       id="guide1301" />
    <sodipodi:guide
       position="-64.885228,128.95519"
       orientation="0,-1"
       id="guide967" />
    <sodipodi:guide
       position="-41.956332,162.37341"
       orientation="1,0"
       id="guide969" />
    <sodipodi:guide
       position="37.636512,57"
       orientation="0,1"
       id="guide1001"
       inkscape:label=""
       inkscape:locked="false"
       inkscape:color="rgb(0,0,255)" />
    <sodipodi:guide
       position="34.425814,77"
       orientation="0,1"
       id="guide1003"
       inkscape:label=""
       inkscape:locked="false"
       inkscape:color="rgb(0,0,255)" />
    <sodipodi:guide
       position="46.02,67"
       orientation="0,1"
       id="guide1005"
       inkscape:label=""
       inkscape:locked="false"
       inkscape:color="rgb(0,0,255)" />
  </sodipodi:namedview>
  <metadata
     id="metadata5">
    <rdf:RDF>
      <cc:Work
         rdf:about="">
        <dc:format>image/svg+xml</dc:format>
        <dc:type
           rdf:resource="http://purl.org/dc/dcmitype/StillImage" />
        <dc:title></dc:title>
      </cc:Work>
    </rdf:RDF>
  </metadata>
  <g
     inkscape:label="Layer 1"
     inkscape:groupmode="layer"
     id="layer1">
    <g
       id="g1088"
       transform="matrix(0.69060967,0,0,0.69060967,-12.837929,-60.521322)">
      <rect
         id="rect5134"
         rx="23.459486"
         ry="22.300671"
         height="80.885765"
         width="115.52718"
         y="113.42746"
         x="18.740141"
         style="stroke-width:0" />
      <rect
         id="rect5136"
         rx="20.819843"
         ry="19.989006"
         height="72.501122"
         width="102.52834"
         y="117.27451"
         x="24.859886"
         fill="#ffffff"
         style="fill:#ff0000;fill-opacity:1;stroke-width:0" />
      <g
         id="g7203"
         style="stroke-width:0"
         transform="matrix(0.26458333,0,0,0.26458333,-19.956738,16.417987)">
        <g
           id="g6133"
           transform="matrix(0.81769,0,0,0.81769,146.43,-101.76)">
          <path
             id="path6135"
             transform="matrix(0.5,0,0,0.5,222.86,437.61)"
             d="m 445.71,823.79 a 51.429,51.429 0 1 1 -102.85,0 51.429,51.429 0 1 1 102.85,0 z" />
          <path
             id="path6137"
             transform="matrix(0.36111,0,0,0.36111,279.05,553.45)"
             fill="#ffffff"
             d="m 445.71,823.79 a 51.429,51.429 0 1 1 -102.85,0 51.429,51.429 0 1 1 102.85,0 z" />
        </g>
        <g
           id="g6139"
           transform="matrix(0.81769,0,0,0.81769,81.586,-101.76)">
          <path
             id="path6141"
             transform="matrix(0.5,0,0,0.5,222.86,437.61)"
             d="m 445.71,823.79 a 51.429,51.429 0 1 1 -102.85,0 51.429,51.429 0 1 1 102.85,0 z" />
          <path
             id="path6143"
             transform="matrix(0.36111,0,0,0.36111,279.05,553.45)"
             fill="#ffffff"
             d="m 445.71,823.79 a 51.429,51.429 0 1 1 -102.85,0 51.429,51.429 0 1 1 102.85,0 z" />
        </g>
        <rect
           id="rect6107"
           rx="31.023001"
           ry="33.872002"
           height="122.86"
           width="152.78"
           y="438.07101"
           x="381.50601"
           style="stroke:#4300df;stroke-opacity:1" />
        <rect
           id="rect6109"
           rx="27.806999"
           ry="30.361"
           height="110.12"
           width="136.94"
           y="443.92102"
           x="388.966"
           fill="#ffffff"
           style="fill:#00ff00;fill-opacity:1;stroke:#4300df;stroke-opacity:1" />
        <rect
           id="rect7184"
           rx="20.24"
           ry="22.099001"
           height="80.154999"
           width="99.674004"
           y="458.90131"
           x="407.17999"
           style="stroke:#4300df;stroke-opacity:1" />
        <rect
           id="rect7186"
           rx="19.412001"
           ry="21.101"
           height="76.533997"
           width="95.593002"
           y="460.37131"
           x="408.92001"
           fill="#ffffff"
           style="fill:#ffff00;fill-opacity:1;stroke:#6a00df;stroke-opacity:1" />
        <rect
           id="rect6145"
           rx="0"
           ry="3.1252"
           height="3.1252"
           width="147.67"
           y="497.63"
           x="385.97"
           style="stroke:#4300df;stroke-opacity:1" />
      </g>
      <g
         id="g7259"
         style="stroke-width:0"
         transform="matrix(0.21126317,0,0,0.21261219,-1.2867046,45.849735)">
        <rect
           id="rect6111"
           rx="31.603001"
           ry="59.078999"
           height="214.28999"
           width="155.63"
           y="412.35999"
           x="192.94" />
        <rect
           id="rect6113"
           rx="28.51"
           ry="52.955002"
           height="192.07001"
           width="140.39999"
           y="422.56"
           x="200.53"
           fill="#ffffff" />
        <rect
           id="rect7223"
           rx="0"
           ry="4.5026999"
           height="4.5026999"
           width="144.99001"
           y="465.20999"
           x="198.12" />
        <rect
           id="rect7225"
           rx="0"
           ry="4.5026999"
           height="4.5026999"
           width="144.99001"
           y="491.32999"
           x="197.22" />
        <rect
           id="rect7227"
           rx="0"
           ry="4.5026999"
           height="4.5026999"
           width="144.99001"
           y="516.53998"
           x="197.22" />
        <rect
           id="rect7229"
           rx="0"
           ry="4.5026999"
           height="4.5026999"
           width="144.99001"
           y="541.76001"
           x="197.22" />
        <rect
           id="rect7231"
           rx="0"
           ry="4.5026999"
           height="4.5026999"
           width="144.99001"
           y="565.59003"
           x="197.22" />
      </g>
      <path
         id="path7244"
         d="m 49.036089,197.16275 a 8.33994,4.7654685 0 1 1 -16.67988,0 8.33994,4.7654685 0 1 1 16.67988,0 z"
         style="stroke-width:0" />
      <path
         id="path7246"
         d="m 121.23188,197.639 a 8.33994,4.7654685 0 1 1 -16.67988,0 8.33994,4.7654685 0 1 1 16.67988,0 z"
         style="stroke-width:0" />
      <rect
         id="rect7250"
         ry="16.830318"
         rx="0"
         transform="matrix(-0.94527314,-0.32628007,-0.8440147,0.53632004,0,0)"
         height="47.677132"
         width="3.6588416"
         y="59.708363"
         x="-176.1143"
         style="stroke-width:0" />
      <circle
         style="fill:#ffffff;fill-opacity:1;fill-rule:evenodd;stroke:none;stroke-width:1.18109;stroke-linecap:round;stroke-linejoin:round;stroke-miterlimit:4;stroke-dasharray:none;stroke-dashoffset:0;stroke-opacity:1"
         id="circle4331-7-5"
         cx="42.776016"
         cy="134.54185"
         r="0.82721788" />
      <path
         inkscape:connector-curvature="0"
         style="fill:#ffffff;fill-opacity:1;stroke:#000000;stroke-width:1.4;stroke-miterlimit:4;stroke-dasharray:none;stroke-opacity:1"
         d="m 32.827628,166.24011 c -1.336741,-0.52806 -2.420175,-1.33204 -3.118996,-2.31446 -0.582724,-0.81923 -0.593577,-1.00418 -0.593577,-10.11796 0,-9.11379 0.01086,-9.29875 0.593577,-10.11796 0.698821,-0.98242 1.782255,-1.7864 3.118996,-2.31447 0.713378,-0.28183 1.763322,-0.40182 4.056318,-0.46358 l 3.093806,-0.0833 v 0.83854 l 0.127724,2.6658 -3.510996,0.11361 c -3.247125,0.10508 -3.891564,0.19687 -3.964268,1.9484 -0.02781,0.67003 -0.04709,-1.37145 -0.04709,7.54316 0,8.91461 0.01928,6.891 0.01928,7.54495 1.229682,1.2494 1.006905,1.25085 4.249538,1.45132 l 3.31745,0.2051 -0.191637,2.80925 v 0.83853 l -3.093806,-0.0833 c -2.292996,-0.0617 -3.342939,-0.18174 -4.056318,-0.46358 z"
         id="path3465-1-7-5"
         sodipodi:nodetypes="cssssccccssscscccsc" />
      <path
         inkscape:connector-curvature="0"
         style="fill:#000000;fill-opacity:1;stroke-width:0.176261"
         d="m 44.496892,141.48792 c -0.897582,-0.11595 -1.138441,-0.84553 -1.138441,-0.84553 l -0.115942,7.49298 c -0.02506,0.9272 -1.305087,1.35782 -2.238518,1.57078 -0.499611,-0.0439 -0.994891,-0.15002 -1.343505,-0.33031 -1.245178,-0.6439 -1.289518,-0.93163 -1.288194,-8.35867 6.67e-4,-3.76782 0.09535,-7.10209 0.213785,-7.52838 0.472138,-1.69954 2.283912,-3.31054 4.015024,-3.57015 0.866952,-0.13 0.955874,-0.19923 0.955874,-0.74428 0,-1.0996 0.846746,-3.33373 1.676204,-4.42267 2.643105,-3.46991 6.927451,-4.50753 10.77008,-2.60841 1.734522,0.85725 3.284211,2.36759 4.063606,3.97762 0.257776,0.53248 0.4964,0.96816 0.530283,0.96816 0.03384,0 0.474982,-0.14586 0.980243,-0.32412 1.204308,-0.42491 2.693845,-0.41075 4.011152,0.0381 1.969306,0.67101 3.983765,3.27088 3.983765,5.14149 0,0.35674 0.206496,0.51211 0.942143,0.70887 3.275645,0.8761 2.223315,4.87821 1.189338,5.82744 -1.033976,0.94926 -2.333274,1.08959 -3.014607,0.6061 -0.681332,-0.48349 -0.619725,-1.17662 -0.953523,-1.95367 -0.599499,-0.7886 -1.275282,-0.44776 -1.660244,0.12359 -0.422573,0.87432 -0.51813,2.64287 -1.188109,3.25561 -0.669974,0.61272 -2.098595,0.48922 -2.893843,-0.003 -1.156649,-0.59626 -1.264371,-2.69076 -1.310076,-3.24891 -0.06336,-0.77379 -1.28441,-0.76194 -1.334941,0.0134 -0.465276,1.43038 -0.879915,3.13142 -2.12474,3.97002 -1.411102,0.95064 -3.426875,0.96212 -5.075519,0.54156 -0.950725,-0.24253 -1.856675,-0.81818 -2.419641,-1.67619 -1.311208,-1.99839 -1.096284,-3.32604 -1.654626,-3.49171 -1.048514,-0.31111 -0.715442,1.16123 -1.764847,4.18178 -0.310608,0.89403 -1.242393,0.76251 -1.812181,0.68891 z"
         id="path3479-5-8-3"
         sodipodi:nodetypes="scccssssssssssssszzcczcscaasssss" />
      <path
         inkscape:connector-curvature="0"
         style="fill:#ffff00;fill-opacity:1;stroke-width:0.176261"
         d="m 41.581492,147.68794 c 0.153284,-0.18469 0.259013,-1.96751 0.29656,-5.00045 0.05217,-4.21576 0.09826,-4.73859 0.43647,-4.95176 0.4875,-0.3073 1.079471,0.0414 1.242453,0.73179 0.162834,0.68978 0.754699,1.03892 1.242452,0.7329 0.285326,-0.17899 0.405107,-0.62952 0.488012,-1.83556 0.06043,-0.87907 0.233471,-1.81609 0.384542,-2.08226 0.592984,-1.04478 2.293997,-1.43776 3.507364,-0.81031 0.799753,0.41358 1.116251,1.00062 1.315433,2.43983 0.598765,4.3264 6.192066,4.34401 6.875337,0.0217 0.249026,-1.57529 0.721297,-1.9235 2.608841,-1.9235 2.085255,0 2.451183,0.33717 2.59294,2.38917 0.08114,1.17433 0.202227,1.62292 0.486182,1.80104 0.664611,0.41691 1.120447,-0.0951 1.24912,-1.40343 0.06308,-0.64141 0.236136,-1.38396 0.384548,-1.65013 0.582285,-1.04432 2.288568,-1.43805 3.505271,-0.80886 0.63682,0.3293 1.289407,1.30626 1.289407,1.9303 0,0.50157 0.598899,0.40383 1.198251,-0.19552 1.057032,-1.05704 0.313101,-2.92689 -1.164495,-2.92689 -1.049026,0 -1.585345,-0.61895 -1.780137,-2.05438 -0.214657,-1.58179 -1.033619,-2.80089 -2.359115,-3.51176 -0.809354,-0.43407 -1.183055,-0.50345 -2.229212,-0.41391 -2.170932,0.1858 -3.694734,1.61111 -4.001054,3.74244 -0.16428,1.14303 -0.66655,1.62894 -1.278471,1.23682 -0.769769,-0.49327 -0.297346,-3.08553 0.848658,-4.65673 0.217081,-0.29763 0.170161,-0.5665 -0.258506,-1.48174 -0.666217,-1.4224 -1.830546,-2.62234 -3.283714,-3.38413 -0.987271,-0.51756 -1.390459,-0.5986 -2.978508,-0.5986 -1.582618,0 -1.992582,0.0817 -2.963856,0.59116 -2.239611,1.1746 -3.620429,3.17742 -3.922923,5.69002 -0.09576,0.79543 -0.317804,1.55015 -0.513688,1.74604 -0.189769,0.18977 -0.848106,0.42455 -1.462973,0.52175 -1.316352,0.20809 -2.383806,0.94849 -2.882438,1.99927 -0.304492,0.64166 -0.35453,1.67418 -0.35453,7.31565 0,4.82077 0.06899,6.63755 0.259299,6.82786 0.342719,0.34272 0.926009,0.32947 1.22248,-0.0277 z"
         id="path3461-6-2-6" />
      <circle
         style="opacity:0.996;fill:#ffff01;fill-opacity:1;stroke:#000000;stroke-width:1.4;stroke-miterlimit:4;stroke-dasharray:none;stroke-opacity:1;stop-color:#000000"
         id="path1007"
         cx="92.969643"
         cy="174.97183"
         r="2.1317365" />
      <circle
         style="opacity:0.996;fill:#ffff00;fill-opacity:1;stroke:#000000;stroke-width:1.4;stroke-miterlimit:4;stroke-dasharray:none;stroke-opacity:1;stop-color:#000000"
         id="path1007-3"
         cx="110.34688"
         cy="172.02219"
         r="2.1317365" />
      <rect
         id="rect1024"
         ry="16.830318"
         rx="0"
         transform="matrix(0.94527314,-0.32628007,0.8440147,0.53632004,0,0)"
         height="47.677132"
         width="3.6588416"
         y="121.53488"
         x="-74.487694"
         style="stroke-width:0" />
      <path
         style="fill:none;stroke:#000000;stroke-width:0.742401;stroke-linecap:butt;stroke-linejoin:miter;stroke-miterlimit:4;stroke-dasharray:none;stroke-opacity:1;filter:url(#filter1048)"
         d="m 82.130612,156.09013 1.481709,-10 1.288578,17.44578 1.434017,-13.6451 1.127152,16.19932 1.696743,-20 1.160807,13.74598 1.23177,-6.84114 0.34804,6.45928 1.078177,-5.78358 1.901484,12.41946 0.688948,-20 1.42925,14.16618 0.431846,-6.90403 1.230562,12.73785 0.748588,-5.98017 1.819707,5.98017 0.42781,-16.69625 1.29338,9.97403 1.11124,-3.27778 h 4.02391 l 0.88061,-4.91558 0.10866,7.96036 1.10738,-13.04478 1.35005,17.48235 1.44567,-7.48235 0.55229,2.38406 1.10968,-2.38406 h 4.32159"
         id="path1026"
         transform="matrix(0.69704108,0,0,0.7873905,32.023351,25.458237)" />
    </g>
  </g>
</svg>
